<svg width="121" height="98" viewBox="0 0 121 98" fill="none" xmlns="http://www.w3.org/2000/svg">
<path d="M35.2917 36.75V28.5833H105.875V36.75H35.2917ZM35.2917 53.0833V44.9166H105.875V53.0833H35.2917ZM35.2917 69.4166V61.25H105.875V69.4166H35.2917ZM20.1667 36.75C18.7382 36.75 17.5408 36.3587 16.5745 35.576C15.6082 34.7934 15.125 33.8236 15.125 32.6666C15.125 31.5097 15.6082 30.5399 16.5745 29.7573C17.5408 28.9746 18.7382 28.5833 20.1667 28.5833C21.5951 28.5833 22.7925 28.9746 23.7589 29.7573C24.7252 30.5399 25.2083 31.5097 25.2083 32.6666C25.2083 33.8236 24.7252 34.7934 23.7589 35.576C22.7925 36.3587 21.5951 36.75 20.1667 36.75ZM20.1667 53.0833C18.7382 53.0833 17.5408 52.692 16.5745 51.9094C15.6082 51.1267 15.125 50.1569 15.125 49C15.125 47.843 15.6082 46.8732 16.5745 46.0906C17.5408 45.308 18.7382 44.9166 20.1667 44.9166C21.5951 44.9166 22.7925 45.308 23.7589 46.0906C24.7252 46.8732 25.2083 47.843 25.2083 49C25.2083 50.1569 24.7252 51.1267 23.7589 51.9094C22.7925 52.692 21.5951 53.0833 20.1667 53.0833ZM20.1667 69.4166C18.7382 69.4166 17.5408 69.0253 16.5745 68.2427C15.6082 67.46 15.125 66.4903 15.125 65.3333C15.125 64.1764 15.6082 63.2066 16.5745 62.4239C17.5408 61.6413 18.7382 61.25 20.1667 61.25C21.5951 61.25 22.7925 61.6413 23.7589 62.4239C24.7252 63.2066 25.2083 64.1764 25.2083 65.3333C25.2083 66.4903 24.7252 67.46 23.7589 68.2427C22.7925 69.0253 21.5951 69.4166 20.1667 69.4166Z" fill="#1D1B20"/>
</svg>
