<svg width="59" height="51" viewBox="0 0 59 51" fill="none" xmlns="http://www.w3.org/2000/svg">
<path d="M29.0417 25.5C26.3795 25.5 24.1005 24.6677 22.2048 23.0031C20.309 21.3385 19.3611 19.3375 19.3611 17C19.3611 14.6625 20.309 12.6615 22.2048 10.9969C24.1005 9.33229 26.3795 8.5 29.0417 8.5C31.7038 8.5 33.9828 9.33229 35.8785 10.9969C37.7743 12.6615 38.7222 14.6625 38.7222 17C38.7222 19.3375 37.7743 21.3385 35.8785 23.0031C33.9828 24.6677 31.7038 25.5 29.0417 25.5ZM9.68054 42.5V36.55C9.68054 35.3458 10.0335 34.2391 10.7394 33.2297C11.4452 32.2203 12.383 31.45 13.5528 30.9188C16.0536 29.8208 18.5947 28.9974 21.1762 28.4484C23.7577 27.8995 26.3795 27.625 29.0417 27.625C31.7038 27.625 34.3256 27.8995 36.9071 28.4484C39.4886 28.9974 42.0297 29.8208 44.5305 30.9188C45.7003 31.45 46.6381 32.2203 47.344 33.2297C48.0498 34.2391 48.4028 35.3458 48.4028 36.55V42.5H9.68054ZM14.5208 38.25H43.5625V36.55C43.5625 36.1604 43.4516 35.8062 43.2297 35.4875C43.0079 35.1687 42.7154 34.9208 42.3524 34.7438C40.1743 33.7875 37.976 33.0703 35.7575 32.5922C33.5391 32.1141 31.3004 31.875 29.0417 31.875C26.7829 31.875 24.5442 32.1141 22.3258 32.5922C20.1073 33.0703 17.909 33.7875 15.7309 34.7438C15.3679 34.9208 15.0754 35.1687 14.8536 35.4875C14.6317 35.8062 14.5208 36.1604 14.5208 36.55V38.25ZM29.0417 21.25C30.3727 21.25 31.5122 20.8339 32.4601 20.0016C33.408 19.1693 33.8819 18.1687 33.8819 17C33.8819 15.8313 33.408 14.8307 32.4601 13.9984C31.5122 13.1661 30.3727 12.75 29.0417 12.75C27.7106 12.75 26.5711 13.1661 25.6232 13.9984C24.6753 14.8307 24.2014 15.8313 24.2014 17C24.2014 18.1687 24.6753 19.1693 25.6232 20.0016C26.5711 20.8339 27.7106 21.25 29.0417 21.25Z" fill="#1D1B20"/>
</svg>
