<svg width="58" height="58" viewBox="0 0 58 58" fill="none" xmlns="http://www.w3.org/2000/svg">
<path d="M43.5 53.1667C41.4861 53.1667 39.7743 52.4618 38.3646 51.0521C36.9549 49.6424 36.25 47.9306 36.25 45.9167C36.25 45.6348 36.2701 45.3428 36.3104 45.0407C36.3507 44.7386 36.4111 44.4667 36.4917 44.225L19.4542 34.3167C18.7694 34.9209 18.0042 35.3941 17.1583 35.7365C16.3125 36.0789 15.4264 36.25 14.5 36.25C12.4861 36.25 10.7743 35.5452 9.36458 34.1355C7.95486 32.7257 7.25 31.0139 7.25 29C7.25 26.9862 7.95486 25.2743 9.36458 23.8646C10.7743 22.4549 12.4861 21.75 14.5 21.75C15.4264 21.75 16.3125 21.9212 17.1583 22.2636C18.0042 22.6059 18.7694 23.0792 19.4542 23.6834L36.4917 13.775C36.4111 13.5334 36.3507 13.2615 36.3104 12.9594C36.2701 12.6573 36.25 12.3653 36.25 12.0834C36.25 10.0695 36.9549 8.35768 38.3646 6.94796C39.7743 5.53824 41.4861 4.83337 43.5 4.83337C45.5139 4.83337 47.2257 5.53824 48.6354 6.94796C50.0451 8.35768 50.75 10.0695 50.75 12.0834C50.75 14.0973 50.0451 15.8091 48.6354 17.2188C47.2257 18.6285 45.5139 19.3334 43.5 19.3334C42.5736 19.3334 41.6875 19.1622 40.8417 18.8198C39.9958 18.4775 39.2306 18.0042 38.5458 17.4L21.5083 27.3084C21.5889 27.55 21.6493 27.8219 21.6896 28.124C21.7299 28.4261 21.75 28.7181 21.75 29C21.75 29.282 21.7299 29.574 21.6896 29.8761C21.6493 30.1782 21.5889 30.45 21.5083 30.6917L38.5458 40.6C39.2306 39.9959 39.9958 39.5226 40.8417 39.1803C41.6875 38.8379 42.5736 38.6667 43.5 38.6667C45.5139 38.6667 47.2257 39.3716 48.6354 40.7813C50.0451 42.191 50.75 43.9028 50.75 45.9167C50.75 47.9306 50.0451 49.6424 48.6354 51.0521C47.2257 52.4618 45.5139 53.1667 43.5 53.1667ZM43.5 14.5C44.1847 14.5 44.7587 14.2684 45.2219 13.8052C45.6851 13.3421 45.9167 12.7681 45.9167 12.0834C45.9167 11.3987 45.6851 10.8247 45.2219 10.3615C44.7587 9.8983 44.1847 9.66671 43.5 9.66671C42.8153 9.66671 42.2413 9.8983 41.7781 10.3615C41.3149 10.8247 41.0833 11.3987 41.0833 12.0834C41.0833 12.7681 41.3149 13.3421 41.7781 13.8052C42.2413 14.2684 42.8153 14.5 43.5 14.5ZM14.5 31.4167C15.1847 31.4167 15.7587 31.1851 16.2219 30.7219C16.6851 30.2587 16.9167 29.6848 16.9167 29C16.9167 28.3153 16.6851 27.7414 16.2219 27.2782C15.7587 26.815 15.1847 26.5834 14.5 26.5834C13.8153 26.5834 13.2413 26.815 12.7781 27.2782C12.3149 27.7414 12.0833 28.3153 12.0833 29C12.0833 29.6848 12.3149 30.2587 12.7781 30.7219C13.2413 31.1851 13.8153 31.4167 14.5 31.4167ZM43.5 48.3334C44.1847 48.3334 44.7587 48.1018 45.2219 47.6386C45.6851 47.1754 45.9167 46.6014 45.9167 45.9167C45.9167 45.232 45.6851 44.658 45.2219 44.1948C44.7587 43.7316 44.1847 43.5 43.5 43.5C42.8153 43.5 42.2413 43.7316 41.7781 44.1948C41.3149 44.658 41.0833 45.232 41.0833 45.9167C41.0833 46.6014 41.3149 47.1754 41.7781 47.6386C42.2413 48.1018 42.8153 48.3334 43.5 48.3334Z" fill="#1D1B20"/>
</svg>
